# xmcd
# 
# Track frame offsets:
#     150
#     33832
#     62637
#     152112
#     182937
#     206167
#     231085
#     244052
#     270125
#     290800
# 
# Disc length: 4115
# 
# Revision: 5
# Processed by: cddbd v1.5.2PL0 Copyright (c) Steve Scherf et al.
# Submitted via: fre:ac v1.0.31
# 
DISCID=8c10110a
DTITLE=Tangerine Dream - Dream Sequence Disc 2
DYEAR=2000
DGENRE=Electronica
TTITLE0=Cloudburst Flight
TTITLE1=Forces Majeure
TTITLE2=Tangram Part One
TTITLE3=Beach Scene
TTITLE4=Logos Part One (A)
TTITLE5=Logos Part One (B)
TTITLE6=Logos Part Two
TTITLE7=Dominion
TTITLE8=White Eagle
TTITLE9=Love on a Real Train
EXTD=
EXTT0=
EXTT1=
EXTT2=
EXTT3=
EXTT4=
EXTT5=
EXTT6=
EXTT7=
EXTT8=
EXTT9=
PLAYORDER=
